<svg xmlns="http://www.w3.org/2000/svg" xmlns:xlink="http://www.w3.org/1999/xlink" width="24" height="24" viewBox="0 0 24 24">
    <defs>
        <path id="grez3wxeoa" d="M0 0L20 0 20 17 0 17z"/>
    </defs>
    <g fill="none" fill-rule="evenodd">
        <path d="M0 0H24V24H0z"/>
        <g transform="translate(2 4)">
            <mask id="5ri3g3fmkb" fill="#fff">
                <use xlink:href="#grez3wxeoa"/>
            </mask>
            <path fill="#383535" d="M15.845 13.408c.156 0 .288-.053.395-.159.107-.106.16-.237.16-.396V10.3c0-.147-.055-.273-.164-.378-.11-.106-.24-.16-.39-.16-.15 0-.278.054-.382.16-.104.105-.157.231-.157.378v2.007H13.85c-.15 0-.278.054-.385.164-.108.108-.16.236-.16.382 0 .153.052.284.16.392.107.108.235.163.385.163h1.995zm-4.063-6.62c-.055-.054-.083-.153-.083-.3v-.493c0-.147.028-.248.083-.304.055-.055.154-.084.3-.084h.476c.15 0 .254.03.312.084.058.056.087.157.087.304v.493c0 .147-.029.246-.087.3-.058.053-.162.08-.312.08h-.477c-.145 0-.244-.027-.299-.08zm2.402 9.877c-.506-.223-.952-.53-1.339-.924-.388-.394-.692-.847-.91-1.36-.22-.514-.33-1.064-.33-1.65 0-.588.11-1.138.33-1.652.218-.514.522-.965.91-1.356.387-.39.833-.698 1.34-.924.505-.226 1.047-.339 1.625-.339.573 0 1.114.112 1.622.335.51.222.956.531 1.34.924.385.393.685.846.902 1.36.217.514.326 1.064.326 1.651 0 .581-.11 1.128-.33 1.642-.22.514-.523.967-.91 1.36-.388.393-.835.702-1.34.93-.507.225-1.043.338-1.61.338-.578 0-1.12-.112-1.626-.335zm-5.108-4.477c-.055-.055-.083-.157-.083-.303v-.494c0-.146.028-.246.083-.298.055-.053.155-.08.3-.08h.485c.15 0 .253.027.308.08.054.052.082.152.082.298v.494c0 .146-.028.248-.082.303-.055.056-.158.084-.308.084h-.486c-.144 0-.244-.028-.299-.084zm0-2.702c-.055-.057-.083-.157-.083-.305v-.483c0-.146.028-.247.083-.3.055-.053.155-.079.3-.079h.485c.15 0 .253.026.308.08.054.052.082.153.082.3v.482c0 .148-.028.248-.082.305-.055.056-.158.083-.308.083h-.486c-.144 0-.244-.027-.299-.083zm0-2.699c-.055-.053-.083-.152-.083-.299v-.493c0-.147.028-.248.083-.304.055-.055.155-.084.3-.084h.485c.15 0 .253.03.308.084.054.056.082.157.082.304v.493c0 .147-.028.246-.082.3-.055.053-.158.08-.308.08h-.486c-.144 0-.244-.027-.299-.08zM6.38 12.188c-.055-.055-.083-.157-.083-.303v-.494c0-.146.028-.246.083-.298.054-.053.154-.08.3-.08h.484c.145 0 .246.027.304.08.058.052.087.152.087.298v.494c0 .146-.029.248-.087.303-.058.056-.159.084-.304.084h-.485c-.145 0-.245-.028-.299-.084zm0-2.702c-.055-.057-.083-.157-.083-.305v-.483c0-.146.028-.247.083-.3.054-.053.154-.079.3-.079h.484c.145 0 .246.026.304.08.058.052.087.153.087.3v.482c0 .148-.029.248-.087.305-.058.056-.159.083-.304.083h-.485c-.145 0-.245-.027-.299-.083zm0-2.699c-.055-.053-.083-.152-.083-.299v-.493c0-.147.028-.248.083-.304.054-.055.154-.084.3-.084h.484c.145 0 .246.03.304.084.058.056.087.157.087.304v.493c0 .147-.029.246-.087.3-.058.053-.159.08-.304.08h-.485c-.145 0-.245-.027-.299-.08zm-2.698 5.401c-.055-.055-.082-.157-.082-.303v-.494c0-.146.027-.246.082-.298.055-.053.155-.08.3-.08h.476c.145 0 .248.027.308.08.061.052.091.152.091.298v.494c0 .146-.03.248-.09.303-.06.056-.164.084-.309.084H3.98c-.144 0-.244-.028-.299-.084zm0-2.702C3.626 9.43 3.6 9.33 3.6 9.181v-.483c0-.146.027-.247.082-.3.055-.053.155-.079.3-.079h.476c.145 0 .248.026.308.08.061.052.091.153.091.3v.482c0 .148-.03.248-.09.305-.06.056-.164.083-.309.083H3.98c-.144 0-.244-.027-.299-.083zM.001 2.65C0 1.77.221 1.107.666.664 1.113.221 1.772 0 2.645 0h11.258c.873 0 1.531.222 1.977.67.445.445.668 1.105.668 1.98v4.71c-.127-.018-.253-.033-.378-.045-.124-.012-.244-.017-.36-.017-.127 0-.253.005-.377.017s-.25.027-.377.044V5.07c0-.375-.095-.657-.286-.845-.19-.187-.463-.28-.816-.28H2.584c-.353 0-.623.093-.81.28-.189.188-.283.47-.283.845v7.748c0 .375.094.657.282.845.188.187.458.282.811.282h8.04c.046.264.118.524.217.778.098.256.217.498.356.727H2.645c-.873 0-1.532-.222-1.978-.664C.222 14.343 0 13.68 0 12.801V2.65z" mask="url(#5ri3g3fmkb)"/>
        </g>
        <path d="M0 0H24V24H0z"/>
    </g>
</svg>
