<svg xmlns="http://www.w3.org/2000/svg" width="24" height="24" viewBox="0 0 24 24">
    <g fill="#B8B8B8" transform="translate(0 3)">
        <circle cx="12" cy="10.188" r="3.594"/>
        <path d="M22.094 3h-3.407c-.287 0-.556-.125-.75-.337C16.163.675 15.495 0 14.77 0H9.425c-.731 0-1.45.675-3.231 2.669C6.006 2.88 5.73 3 5.45 3h-.256v-.5c0-.275-.225-.5-.5-.5H3.069c-.275 0-.5.225-.5.5V3H2.1C.994 3 0 3.825 0 4.919v11C0 17.012.994 18 2.094 18h20c1.1 0 1.906-.988 1.906-2.081v-11C24 3.825 23.194 3 22.094 3zM12.25 15.525c-3.144.144-5.731-2.444-5.588-5.588.125-2.743 2.344-4.962 5.088-5.087 3.144-.144 5.731 2.444 5.587 5.588-.125 2.743-2.343 4.962-5.087 5.087zm5.75-8.9c-.45 0-.813-.362-.813-.813 0-.45.363-.812.813-.812.45 0 .813.362.813.813 0 .45-.363.812-.813.812z"/>
    </g>
</svg>
